<mxfile host="Electron" modified="2023-06-28T22:12:45.955Z" agent="Mozilla/5.0 (X11; Linux x86_64) AppleWebKit/537.36 (KHTML, like Gecko) draw.io/21.1.2 Chrome/106.0.5249.199 Electron/21.4.3 Safari/537.36" etag="uTc5K8a_99watJB7P_5z" version="21.1.2" type="device">
  <diagram name="Page-1" id="DrV8s9u_9aUborw5UL5w">
    <mxGraphModel dx="942" dy="678" grid="1" gridSize="10" guides="1" tooltips="1" connect="1" arrows="1" fold="1" page="1" pageScale="1" pageWidth="850" pageHeight="1100" math="0" shadow="0">
      <root>
        <mxCell id="0" />
        <mxCell id="1" parent="0" />
        <mxCell id="tA-SKmqgJOb-W1CzfeRk-6" value="Composite Node" style="swimlane;whiteSpace=wrap;html=1;startSize=23;" vertex="1" parent="1">
          <mxGeometry x="240" y="190" width="470" height="290" as="geometry" />
        </mxCell>
        <mxCell id="tA-SKmqgJOb-W1CzfeRk-46" style="edgeStyle=orthogonalEdgeStyle;rounded=0;orthogonalLoop=1;jettySize=auto;html=1;exitX=1;exitY=0.5;exitDx=0;exitDy=0;entryX=0;entryY=0.5;entryDx=0;entryDy=0;" edge="1" parent="tA-SKmqgJOb-W1CzfeRk-6" source="tA-SKmqgJOb-W1CzfeRk-12" target="tA-SKmqgJOb-W1CzfeRk-13">
          <mxGeometry relative="1" as="geometry" />
        </mxCell>
        <mxCell id="tA-SKmqgJOb-W1CzfeRk-12" value="port" style="whiteSpace=wrap;html=1;aspect=fixed;" vertex="1" parent="tA-SKmqgJOb-W1CzfeRk-6">
          <mxGeometry y="150" width="30" height="30" as="geometry" />
        </mxCell>
        <mxCell id="tA-SKmqgJOb-W1CzfeRk-16" value="Composite Node" style="swimlane;whiteSpace=wrap;html=1;" vertex="1" parent="tA-SKmqgJOb-W1CzfeRk-6">
          <mxGeometry x="200" y="45" width="220" height="200" as="geometry" />
        </mxCell>
        <mxCell id="tA-SKmqgJOb-W1CzfeRk-17" value="" style="group" vertex="1" connectable="0" parent="tA-SKmqgJOb-W1CzfeRk-16">
          <mxGeometry x="50" y="45" width="120" height="60" as="geometry" />
        </mxCell>
        <mxCell id="tA-SKmqgJOb-W1CzfeRk-18" value="Leaf Node" style="rounded=1;whiteSpace=wrap;html=1;" vertex="1" parent="tA-SKmqgJOb-W1CzfeRk-17">
          <mxGeometry width="120" height="60" as="geometry" />
        </mxCell>
        <mxCell id="tA-SKmqgJOb-W1CzfeRk-19" value="port" style="whiteSpace=wrap;html=1;aspect=fixed;" vertex="1" parent="tA-SKmqgJOb-W1CzfeRk-17">
          <mxGeometry y="15" width="30" height="30" as="geometry" />
        </mxCell>
        <mxCell id="tA-SKmqgJOb-W1CzfeRk-20" value="port" style="whiteSpace=wrap;html=1;aspect=fixed;" vertex="1" parent="tA-SKmqgJOb-W1CzfeRk-17">
          <mxGeometry x="90" y="15" width="30" height="30" as="geometry" />
        </mxCell>
        <mxCell id="tA-SKmqgJOb-W1CzfeRk-21" value="" style="group" vertex="1" connectable="0" parent="tA-SKmqgJOb-W1CzfeRk-16">
          <mxGeometry x="50" y="125" width="120" height="60" as="geometry" />
        </mxCell>
        <mxCell id="tA-SKmqgJOb-W1CzfeRk-22" value="Leaf Node" style="rounded=1;whiteSpace=wrap;html=1;" vertex="1" parent="tA-SKmqgJOb-W1CzfeRk-21">
          <mxGeometry width="120" height="60" as="geometry" />
        </mxCell>
        <mxCell id="tA-SKmqgJOb-W1CzfeRk-23" value="port" style="whiteSpace=wrap;html=1;aspect=fixed;" vertex="1" parent="tA-SKmqgJOb-W1CzfeRk-21">
          <mxGeometry y="15" width="30" height="30" as="geometry" />
        </mxCell>
        <mxCell id="tA-SKmqgJOb-W1CzfeRk-24" value="port" style="whiteSpace=wrap;html=1;aspect=fixed;" vertex="1" parent="tA-SKmqgJOb-W1CzfeRk-21">
          <mxGeometry x="90" y="15" width="30" height="30" as="geometry" />
        </mxCell>
        <mxCell id="tA-SKmqgJOb-W1CzfeRk-42" value="" style="edgeStyle=orthogonalEdgeStyle;rounded=0;orthogonalLoop=1;jettySize=auto;html=1;entryX=0;entryY=0.5;entryDx=0;entryDy=0;" edge="1" parent="tA-SKmqgJOb-W1CzfeRk-16" source="tA-SKmqgJOb-W1CzfeRk-26" target="tA-SKmqgJOb-W1CzfeRk-19">
          <mxGeometry relative="1" as="geometry">
            <Array as="points">
              <mxPoint x="40" y="120" />
              <mxPoint x="40" y="75" />
            </Array>
          </mxGeometry>
        </mxCell>
        <mxCell id="tA-SKmqgJOb-W1CzfeRk-43" style="edgeStyle=orthogonalEdgeStyle;rounded=0;orthogonalLoop=1;jettySize=auto;html=1;exitX=1;exitY=0.5;exitDx=0;exitDy=0;entryX=0;entryY=0.5;entryDx=0;entryDy=0;" edge="1" parent="tA-SKmqgJOb-W1CzfeRk-16" source="tA-SKmqgJOb-W1CzfeRk-26" target="tA-SKmqgJOb-W1CzfeRk-23">
          <mxGeometry relative="1" as="geometry">
            <Array as="points">
              <mxPoint x="40" y="120" />
              <mxPoint x="40" y="155" />
            </Array>
          </mxGeometry>
        </mxCell>
        <mxCell id="tA-SKmqgJOb-W1CzfeRk-26" value="port" style="whiteSpace=wrap;html=1;aspect=fixed;" vertex="1" parent="tA-SKmqgJOb-W1CzfeRk-16">
          <mxGeometry y="105" width="30" height="30" as="geometry" />
        </mxCell>
        <mxCell id="tA-SKmqgJOb-W1CzfeRk-27" value="port" style="whiteSpace=wrap;html=1;aspect=fixed;" vertex="1" parent="tA-SKmqgJOb-W1CzfeRk-16">
          <mxGeometry x="190" y="60" width="30" height="30" as="geometry" />
        </mxCell>
        <mxCell id="tA-SKmqgJOb-W1CzfeRk-28" value="port" style="whiteSpace=wrap;html=1;aspect=fixed;" vertex="1" parent="tA-SKmqgJOb-W1CzfeRk-16">
          <mxGeometry x="190" y="140" width="30" height="30" as="geometry" />
        </mxCell>
        <mxCell id="tA-SKmqgJOb-W1CzfeRk-41" value="" style="edgeStyle=orthogonalEdgeStyle;rounded=0;orthogonalLoop=1;jettySize=auto;html=1;entryX=0;entryY=0.5;entryDx=0;entryDy=0;" edge="1" parent="tA-SKmqgJOb-W1CzfeRk-16" source="tA-SKmqgJOb-W1CzfeRk-24" target="tA-SKmqgJOb-W1CzfeRk-28">
          <mxGeometry relative="1" as="geometry" />
        </mxCell>
        <mxCell id="tA-SKmqgJOb-W1CzfeRk-29" value="port" style="whiteSpace=wrap;html=1;aspect=fixed;" vertex="1" parent="tA-SKmqgJOb-W1CzfeRk-6">
          <mxGeometry x="440" y="105" width="30" height="30" as="geometry" />
        </mxCell>
        <mxCell id="tA-SKmqgJOb-W1CzfeRk-30" value="port" style="whiteSpace=wrap;html=1;aspect=fixed;" vertex="1" parent="tA-SKmqgJOb-W1CzfeRk-6">
          <mxGeometry x="440" y="185" width="30" height="30" as="geometry" />
        </mxCell>
        <mxCell id="tA-SKmqgJOb-W1CzfeRk-37" style="edgeStyle=orthogonalEdgeStyle;rounded=0;orthogonalLoop=1;jettySize=auto;html=1;exitX=1;exitY=0.5;exitDx=0;exitDy=0;entryX=0;entryY=0.5;entryDx=0;entryDy=0;" edge="1" parent="tA-SKmqgJOb-W1CzfeRk-6" source="tA-SKmqgJOb-W1CzfeRk-27" target="tA-SKmqgJOb-W1CzfeRk-29">
          <mxGeometry relative="1" as="geometry" />
        </mxCell>
        <mxCell id="tA-SKmqgJOb-W1CzfeRk-38" value="" style="edgeStyle=orthogonalEdgeStyle;rounded=0;orthogonalLoop=1;jettySize=auto;html=1;entryX=0;entryY=0.5;entryDx=0;entryDy=0;" edge="1" parent="tA-SKmqgJOb-W1CzfeRk-6" source="tA-SKmqgJOb-W1CzfeRk-28" target="tA-SKmqgJOb-W1CzfeRk-30">
          <mxGeometry relative="1" as="geometry" />
        </mxCell>
        <mxCell id="tA-SKmqgJOb-W1CzfeRk-40" value="" style="edgeStyle=orthogonalEdgeStyle;rounded=0;orthogonalLoop=1;jettySize=auto;html=1;" edge="1" parent="tA-SKmqgJOb-W1CzfeRk-6" source="tA-SKmqgJOb-W1CzfeRk-20">
          <mxGeometry relative="1" as="geometry">
            <mxPoint x="390" y="120" as="targetPoint" />
          </mxGeometry>
        </mxCell>
        <mxCell id="tA-SKmqgJOb-W1CzfeRk-44" style="edgeStyle=orthogonalEdgeStyle;rounded=0;orthogonalLoop=1;jettySize=auto;html=1;exitX=1;exitY=0.5;exitDx=0;exitDy=0;entryX=0;entryY=0.5;entryDx=0;entryDy=0;" edge="1" parent="tA-SKmqgJOb-W1CzfeRk-6" source="tA-SKmqgJOb-W1CzfeRk-14" target="tA-SKmqgJOb-W1CzfeRk-26">
          <mxGeometry relative="1" as="geometry">
            <Array as="points">
              <mxPoint x="170" y="165" />
            </Array>
          </mxGeometry>
        </mxCell>
        <mxCell id="tA-SKmqgJOb-W1CzfeRk-15" value="" style="group" vertex="1" connectable="0" parent="tA-SKmqgJOb-W1CzfeRk-6">
          <mxGeometry x="50" y="135" width="120" height="60" as="geometry" />
        </mxCell>
        <mxCell id="tA-SKmqgJOb-W1CzfeRk-11" value="Leaf Node" style="rounded=1;whiteSpace=wrap;html=1;" vertex="1" parent="tA-SKmqgJOb-W1CzfeRk-15">
          <mxGeometry width="120" height="60" as="geometry" />
        </mxCell>
        <mxCell id="tA-SKmqgJOb-W1CzfeRk-13" value="port" style="whiteSpace=wrap;html=1;aspect=fixed;" vertex="1" parent="tA-SKmqgJOb-W1CzfeRk-15">
          <mxGeometry y="15" width="30" height="30" as="geometry" />
        </mxCell>
        <mxCell id="tA-SKmqgJOb-W1CzfeRk-14" value="port" style="whiteSpace=wrap;html=1;aspect=fixed;" vertex="1" parent="tA-SKmqgJOb-W1CzfeRk-15">
          <mxGeometry x="90" y="15" width="30" height="30" as="geometry" />
        </mxCell>
        <mxCell id="tA-SKmqgJOb-W1CzfeRk-31" value="" style="group" vertex="1" connectable="0" parent="1">
          <mxGeometry x="770" y="290" width="120" height="120" as="geometry" />
        </mxCell>
        <mxCell id="tA-SKmqgJOb-W1CzfeRk-32" value="Leaf Node" style="rounded=1;whiteSpace=wrap;html=1;" vertex="1" parent="tA-SKmqgJOb-W1CzfeRk-31">
          <mxGeometry y="20" width="120" height="90" as="geometry" />
        </mxCell>
        <mxCell id="tA-SKmqgJOb-W1CzfeRk-33" value="port" style="whiteSpace=wrap;html=1;aspect=fixed;" vertex="1" parent="tA-SKmqgJOb-W1CzfeRk-31">
          <mxGeometry y="30" width="30" height="30" as="geometry" />
        </mxCell>
        <mxCell id="tA-SKmqgJOb-W1CzfeRk-35" value="port" style="whiteSpace=wrap;html=1;aspect=fixed;" vertex="1" parent="tA-SKmqgJOb-W1CzfeRk-31">
          <mxGeometry y="70" width="30" height="30" as="geometry" />
        </mxCell>
        <mxCell id="tA-SKmqgJOb-W1CzfeRk-36" style="edgeStyle=orthogonalEdgeStyle;rounded=0;orthogonalLoop=1;jettySize=auto;html=1;exitX=1;exitY=0.5;exitDx=0;exitDy=0;entryX=0;entryY=0.5;entryDx=0;entryDy=0;" edge="1" parent="1" source="tA-SKmqgJOb-W1CzfeRk-29" target="tA-SKmqgJOb-W1CzfeRk-33">
          <mxGeometry relative="1" as="geometry" />
        </mxCell>
        <mxCell id="tA-SKmqgJOb-W1CzfeRk-39" value="" style="edgeStyle=orthogonalEdgeStyle;rounded=0;orthogonalLoop=1;jettySize=auto;html=1;" edge="1" parent="1" source="tA-SKmqgJOb-W1CzfeRk-30" target="tA-SKmqgJOb-W1CzfeRk-35">
          <mxGeometry relative="1" as="geometry" />
        </mxCell>
      </root>
    </mxGraphModel>
  </diagram>
</mxfile>
